<svg id="Capa_1" enable-background="new 0 0 511.12 511.12" height="512" viewBox="0 0 511.12 511.12" width="512" xmlns="http://www.w3.org/2000/svg"><g><path d="m320.379 283.57h-40.874v-48.589h6.755c8.01 0 14.526-6.516 14.526-14.526v-28.509c0-8.01-6.517-14.526-14.526-14.526h-28.51c-8.01 0-14.526 6.517-14.526 14.526v28.509c0 8.01 6.517 14.526 14.526 14.526h6.754v48.589h-96.449v-25.167h6.754c8.01 0 14.526-6.516 14.526-14.526v-28.51c0-8.01-6.517-14.526-14.526-14.526h-28.509c-8.01 0-14.526 6.516-14.526 14.526v28.51c0 8.01 6.516 14.526 14.526 14.526h6.755v25.167h-62.791c-14.5 0-28.286-5.473-38.818-15.411-10.554-9.958-16.636-23.312-17.126-37.601-.025-.751-.039-1.504-.039-2.261 0-33.868 26.45-62.153 60.216-64.394 2.143-.142 4.122-1.196 5.436-2.894 1.314-1.699 1.836-3.879 1.436-5.989-1.235-6.497-1.843-13.146-1.807-19.765.097-17.759 4.893-35.255 13.871-50.596 2.092-3.575.89-8.169-2.685-10.261s-8.169-.891-10.261 2.685c-10.307 17.612-15.813 37.699-15.924 58.09-.026 4.911.256 9.836.843 14.719-37.674 6.427-66.123 39.413-66.123 78.404 0 .927.016 1.85.047 2.772.627 18.265 8.377 35.311 21.823 47.999 13.327 12.575 30.769 19.501 49.112 19.501h62.792v44.35h-6.755c-8.01 0-14.526 6.516-14.526 14.526v6.755h-74.214v-6.755c0-8.01-6.516-14.526-14.526-14.526h-28.51c-8.01.002-14.526 6.518-14.526 14.528v28.51c0 8.01 6.516 14.526 14.526 14.526h28.51c8.01 0 14.526-6.516 14.526-14.526v-6.755h74.213v6.755c0 8.01 6.516 14.526 14.526 14.526h28.509c8.01 0 14.526-6.516 14.526-14.526v-28.51c0-8.01-6.517-14.526-14.526-14.526h-6.754v-44.35h96.449v38.084h-6.754c-8.01 0-14.526 6.517-14.526 14.526v28.509c0 8.01 6.517 14.526 14.526 14.526h6.754v40.705h-6.754c-8.01 0-14.526 6.516-14.526 14.526v6.755h-100.14v-6.755c0-8.01-6.516-14.526-14.526-14.526h-28.51c-8.01 0-14.526 6.516-14.526 14.526v6.755h-77.427c-4.142 0-7.5 3.358-7.5 7.5s3.358 7.5 7.5 7.5h77.427v6.755c0 8.01 6.516 14.526 14.526 14.526h28.51c8.01 0 14.526-6.516 14.526-14.526v-6.755h100.14v6.755c0 8.01 6.517 14.526 14.526 14.526h28.509c8.01 0 14.526-6.516 14.526-14.526v-28.51c0-8.01-6.517-14.526-14.526-14.526h-6.755v-40.705h6.755c8.01 0 14.526-6.516 14.526-14.526v-28.509c0-8.01-6.517-14.526-14.526-14.526h-6.755v-38.084h40.874c4.142 0 7.5-3.358 7.5-7.5s-3.358-7.5-7.5-7.5zm-62.155-91.151h27.561v27.561h-27.561zm-111.449 23.423h27.562v27.562h-27.562zm-104.213 169.639h-27.562v-27.561h27.562zm131.775 0h-27.562v-27.561h27.562zm-46.252 92h-27.562v-27.561h27.562zm157.701 0h-27.561v-27.561h27.561zm0-98.266h-27.561v-27.561h27.561z"/><path d="m503.62 406.171h-91.385v-7.725c0-8.01-6.516-14.526-14.525-14.526h-6.755v-85.35h25.174c18.344 0 35.785-6.926 49.112-19.501 13.446-12.687 21.196-29.734 21.824-48.002.031-.919.047-1.843.047-2.77 0-41.372-31.743-75.47-72.153-79.215-2.067-42.039-36.918-75.602-79.46-75.602-10.61 0-21.143 2.134-30.863 6.218-19.5-35.787-56.04-58.912-97.065-60.923-32.173-1.574-63.99 10.492-87.312 33.112-2.974 2.884-3.046 7.632-.162 10.606 2.886 2.974 7.633 3.046 10.606.162 20.351-19.74 48.108-30.274 76.134-28.897 37.976 1.861 71.546 24.481 87.611 59.033.872 1.875 2.48 3.308 4.443 3.958 1.964.649 4.108.462 5.928-.524 9.358-5.066 19.968-7.744 30.681-7.744 35.597 0 64.557 28.96 64.557 64.557 0 .831-.022 1.718-.074 2.876-.09 2.044.659 4.037 2.074 5.515s3.372 2.315 5.419 2.315c.047 0 .106-.001.165-.002 35.559.046 64.473 28.988 64.473 64.557 0 .757-.014 1.51-.038 2.258-.491 14.291-6.573 27.646-17.127 37.604-10.532 9.938-24.318 15.411-38.818 15.411h-65.75c-4.143 0-7.5 3.358-7.5 7.5s3.357 7.5 7.5 7.5h25.576v85.35h-6.757c-8.01 0-14.526 6.516-14.526 14.526v28.51c0 8.01 6.517 14.526 14.526 14.526h28.51c8.01 0 14.525-6.516 14.525-14.526v-5.785h91.385c4.143 0 7.5-3.358 7.5-7.5s-3.358-7.502-7.5-7.502zm-106.385 20.31h-27.561v-27.561h27.561z"/></g></svg>